<?xml version="1.0" encoding="iso-8859-1"?>
<!-- Generator: Adobe Illustrator 19.0.0, SVG Export Plug-In . SVG Version: 6.00 Build 0)  -->
<svg version="1.1" id="Capa_1" xmlns="http://www.w3.org/2000/svg" xmlns:xlink="http://www.w3.org/1999/xlink" x="0px" y="0px"
	 viewBox="0 0 512.001 512.001" style="enable-background:new 0 0 512.001 512.001;" xml:space="preserve">
<g>
	<g>
		<g>
			<path d="M141.366,197.43h0.236c5.523,0,10-4.477,10-10s-4.477-10-10-10h-0.236c-5.522,0-10,4.477-10,10
				S135.844,197.43,141.366,197.43z"/>
			<path d="M502.001,151.175c5.522,0,10-4.477,10-10v-40c0-5.523-4.478-10-10-10h-84.595l-17.608-48.413
				c-1.438-3.952-5.193-6.582-9.398-6.582H121.602c-4.205,0-7.961,2.63-9.398,6.582L94.595,91.175H10c-5.523,0-10,4.477-10,10v40
				c0,5.523,4.477,10,10,10h31.6v264.646H10c-5.523,0-10,4.477-10,10v40c0,5.523,4.477,10,10,10h492.001c5.522,0,10-4.477,10-10v-40
				c0-5.523-4.478-10-10-10h-31.6V151.175H502.001z M128.605,56.18h254.791l12.726,34.993H115.877L128.605,56.18z M492,435.821v20
				H20v-20h205.371c0.012,0,0.023,0.002,0.035,0.002c0.02,0,0.04-0.002,0.059-0.002H492z M112.635,177.428H61.6v-26.247h388.802
				v26.249h-51.035c-5.522,0-10,4.477-10,10s4.478,10,10,10h51.035v218.385h-50.119V233.676c-0.001-5.523-4.478-10-10.001-10
				H121.719c-5.522,0-10,4.477-10,10v182.139H61.6V197.428h51.035c5.523,0,10-4.477,10-10S118.158,177.428,112.635,177.428z
				 M338.385,343.246c-0.569-3.338-2.789-6.162-5.898-7.502c-3.111-1.341-6.688-1.016-9.506,0.862
				c-4.324,2.882-15.805,7.82-26.192,11.946c-4.084-23.158-14.086-47.14-32.136-55.851c-4.225-2.038-9.301-0.867-12.204,2.82
				c-16.442,20.887-21.376,45.732-22.796,60.923c-9.954-4.405-19.774-11.276-23.656-14.349c-2.359-1.875-5.44-2.585-8.382-1.933
				c-2.942,0.652-5.435,2.596-6.782,5.292c-8.397,16.796-8.111,38.746,0.767,58.716c1.872,4.211,4.05,8.108,6.458,11.645H131.72
				V243.676h248.563v172.139h-53.218C345.428,386.545,338.75,345.39,338.385,343.246z M262.617,315.992
				c9.003,10.208,14.483,30.226,15.946,47.288c0.267,3.106,1.967,5.91,4.596,7.583c2.631,1.673,5.892,2.024,8.816,0.949
				c2.191-0.805,16.01-5.921,27.859-11.226c0.428,16.158-1.922,42.183-19.42,55.229h-73.449c-6.108-2.326-12.708-9.911-17.09-19.77
				c-4.432-9.967-5.998-20.71-4.643-30.142c8.604,5.425,20.748,11.9,32.219,13.878c2.99,0.517,6.045-0.364,8.316-2.368
				c2.271-2.005,3.512-4.944,3.371-7.971C249.124,369.125,248.007,340.598,262.617,315.992z M20,131.175v-20h472.001v20H20z"/>
			<path d="M370.399,197.43h0.236c5.523,0,10-4.477,10-10s-4.477-10-10-10h-0.236c-5.522,0-10,4.477-10,10
				S364.877,197.43,370.399,197.43z"/>
		</g>
	</g>
</g>
<g>
</g>
<g>
</g>
<g>
</g>
<g>
</g>
<g>
</g>
<g>
</g>
<g>
</g>
<g>
</g>
<g>
</g>
<g>
</g>
<g>
</g>
<g>
</g>
<g>
</g>
<g>
</g>
<g>
</g>
</svg>
