<svg height="511pt" viewBox="-20 0 511 511.99889" width="511pt" xmlns="http://www.w3.org/2000/svg"><path d="m177.722656 474.632812c-.648437 0-1.308594-.070312-1.960937-.199218-.628907-.132813-1.257813-.320313-1.871094-.570313-.597656-.25-1.179687-.5625-1.726563-.921875-.542968-.359375-1.0625-.777344-1.523437-1.238281-.457031-.460937-.878906-.96875-1.238281-1.519531-.359375-.542969-.667969-1.132813-.917969-1.730469-.25-.601563-.441406-1.230469-.570313-1.871094-.132812-.648437-.203124-1.308593-.203124-1.960937 0-.648438.070312-1.308594.203124-1.949219.128907-.640625.320313-1.269531.570313-1.878906.25-.601563.558594-1.179688.917969-1.722657.359375-.550781.78125-1.058593 1.238281-1.519531.460937-.460937.980469-.878906 1.523437-1.25.546876-.359375 1.128907-.667969 1.726563-.917969.613281-.25 1.242187-.441406 1.871094-.570312 1.300781-.261719 2.621093-.261719 3.921875 0 .628906.128906 1.257812.320312 1.867187.570312.601563.25 1.183594.558594 1.722657.917969.550781.371094 1.058593.789063 1.527343 1.25.460938.460938.882813.96875 1.242188 1.519531.359375.542969.667969 1.121094.917969 1.722657.25.609375.441406 1.238281.570312 1.878906.132812.640625.203125 1.300781.203125 1.949219 0 .648437-.070313 1.308594-.203125 1.960937-.128906.640625-.320312 1.269531-.570312 1.871094-.25.597656-.558594 1.1875-.917969 1.730469-.359375.550781-.78125 1.058594-1.242188 1.519531-.46875.460937-.976562.878906-1.527343 1.238281-.539063.359375-1.121094.671875-1.722657.921875-.609375.25-1.238281.4375-1.867187.570313-.652344.128906-1.3125.199218-1.960938.199218zm0 0"/><path d="m287.753906 399.488281c-4.289062 0-8.257812-2.777343-9.570312-7.09375-1.609375-5.285156 1.371094-10.878906 6.65625-12.488281l103.59375-31.550781c5.285156-1.609375 10.878906 1.371093 12.488281 6.660156 1.609375 5.285156-1.371094 10.878906-6.65625 12.488281l-103.59375 31.550782c-.972656.292968-1.953125.433593-2.917969.433593zm0 0"/><path d="m440.671875 418.292969c-.441406-.171875-37.757813-11.613281-37.757813-11.613281l34.445313-10.464844c12.386719-3.765625 22.566406-12.128906 28.667969-23.550782 6.101562-11.425781 7.386718-24.539062 3.625-36.921874-3.757813-12.367188-12.117188-22.546876-23.558594-28.675782-11.4375-6.089844-24.546875-7.375-36.914062-3.617187l-43.039063 13.074219c13.261719-25.132813 18.71875-53.613282 15.507813-82.429688-6.140626-55.097656-64.933594-145.082031-67.433594-148.886719-1.890625-2.875-5.144532-4.597656-8.566406-4.507812-3.441407.070312-6.605469 1.902343-8.378907 4.855469-.09375.15625-5.179687 8.625-10.433593 17.324218-5.230469-7.863281-12.625-15.191406-20.238282-22.734375-16.570312-16.425781-33.707031-33.410156-29.671875-57.230469 1.363281-8.046874 1.785157-16.121093-4.304687-20.660156-3.558594-2.648437-8.214844-2.984375-12.457032-.894531-12.441406 6.132813-30.300781 44.097656-35.476562 55.589844-4.792969 10.636719-14.046875 32.539062-19.320312 53.929687l-14.046876-20.496094c-2.050781-2.988281-5.554687-4.640624-9.160156-4.308593-3.609375.328125-6.757812 2.578125-8.234375 5.886719-2.132812 4.78125-52.152343 117.808593-39.417969 174.996093.5 2.261719 1.117188 5.289063 1.988282 9.820313 2.792968 14.457031 7.800781 28.410156 14.765625 41.304687l-48.171875-14.632812c-12.371094-3.757813-25.480469-2.472657-36.9375 3.628906-11.421875 6.113281-19.78125 16.296875-23.539063 28.664063-3.761719 12.386718-2.472656 25.5 3.625 36.921874 6.101563 11.421876 16.28125 19.789063 28.667969 23.550782l34.445312 10.464844s-37.3125 11.441406-37.757812 11.613281c-23.605469 9.054687-36.335938 35.113281-28.980469 59.320312 3.753907 12.371094 12.117188 22.546875 23.546875 28.671875 7.078125 3.777344 14.921875 5.714844 22.816406 5.714844 3.585938 0 7.183594-.398438 10.726563-1.207031.460937-.105469 69.5625-20.988281 69.5625-20.988281 5.289063-1.609376 8.273437-7.195313 6.667969-12.484376-1.609375-5.289062-7.195313-8.273437-12.484375-6.667968l-34.046875 10.34375c3.261718-9.382813 3.695312-19.820313.625-29.9375-3.011719-9.90625-8.972656-18.410156-17.105469-24.546875l342.070313-103.910157c7.261718-2.207031 14.964843-1.449218 21.671874 2.121094 6.714844 3.597656 11.628907 9.574219 13.835938 16.835938 2.207031 7.269531 1.453125 14.96875-2.128906 21.675781-3.582032 6.710937-9.558594 11.621094-16.832032 13.828125l-215.398437 65.433594c-5.285156 1.605468-8.273437 7.195312-6.664063 12.480468 1.308594 4.320313 5.277344 7.105469 9.570313 7.105469.964844 0 1.941406-.140625 2.910156-.4375l14.175781-4.304687s175.96875 53.347656 176.429688 53.453125c3.539062.808593 7.136719 1.207031 10.722656 1.207031 7.898438 0 15.742188-1.941406 22.824219-5.722656 11.425781-6.113282 19.785156-16.292969 23.539063-28.664063 7.359374-24.207031-5.371094-50.265625-28.976563-59.320312zm-324.523437-145.3125c-.910157-4.71875-1.558594-7.914063-2.105469-10.367188-8.636719-38.8125 17.960937-112.636719 31.175781-145.726562l16.316406 23.800781.027344 1.007812c.035156 16.117188 4.960938 31.59375 14.253906 44.765626 1.949219 2.765624 5.042969 4.238281 8.1875 4.238281 1.992188 0 4.007813-.59375 5.761719-1.828125 4.515625-3.1875 5.59375-9.433594 2.40625-13.949219-6.929687-9.820313-10.589844-21.363281-10.589844-33.382813 0-.101562-.003906-.203124-.003906-.300781l-.117187-3.832031c.492187-27.558594 20.722656-73.796875 35.292968-99.742188 3.101563 24.328126 20.902344 41.96875 35.757813 56.691407 11.425781 11.328125 22.21875 22.027343 21.761719 31.441406 0 .027344-.003907.058594-.003907.085937 0 .023438 0 .050782-.003906.074219 0 .074219-.003906.144531-.003906.21875v.011719.007812.039063l-.035157 3.964844c0 5.941406-.910156 11.828125-2.707031 17.488281-1.667969 5.269531 1.25 10.894531 6.519531 12.566406 1.007813.316406 2.023438.46875 3.027344.46875 4.246094 0 8.183594-2.726562 9.535156-6.988281 2.414063-7.621094 3.640626-15.539063 3.640626-23.4375l.007812-1.097656c2.726562-4.402344 7.539062-12.351563 11.785156-19.386719 16.484375 27 51.4375 88.011719 55.726563 126.492188 3.574219 32.082031-5.34375 63.6875-25.136719 89.179687l-37.851562 11.5c6.851562-11.308594 10.832031-24.476563 10.832031-38.378906 0-15.957031-5.003907-31.097657-14.464844-43.796875-.003906-.003906-.007813-.003906-.007813-.007813l-50.976562-68.21875c-1.890625-2.527343-4.859375-4.015625-8.019531-4.015625-3.15625 0-6.125 1.488282-8.015625 4.015625l-50.949219 68.183594c-9.488281 12.726563-14.503906 27.882813-14.503906 43.835937 0 13.929688 3.699219 26.980469 10.128906 38.167969l-31.589844-9.59375c-12.582031-15.683593-21.234375-34.386719-25.058593-54.195312zm66.53125 25.625c0-11.609375 3.644531-22.632813 10.527343-31.863281l42.925781-57.449219 42.960938 57.488281c6.863281 9.214844 10.492188 20.21875 10.492188 31.824219 0 29.804687-24.855469 54.984375-54.277344 54.984375-3.953125 0-7.808594-.457032-11.511719-1.324219l-6.265625-1.902344c-20.300781-7.632812-34.851562-27.953125-34.851562-51.757812zm-141.953126 78.457031c-7.273437-2.207031-13.25-7.121094-16.832031-13.828125s-4.335937-14.40625-2.128906-21.675781c2.207031-7.261719 7.121094-13.242188 13.816406-16.828125 4.199219-2.234375 8.78125-3.371094 13.398438-3.371094 2.777343 0 5.566406.410156 8.289062 1.238281l144.433594 43.875-97.917969 29.746094zm-5.125 111.570312c-6.71875-3.597656-11.632812-9.578124-13.835937-16.835937-4.246094-13.984375 2.914063-29.011719 16.335937-34.554687 6.421876-1.292969 13.125-.308594 18.941407 2.800781 6.714843 3.59375 11.628906 9.574219 13.835937 16.835937 4.246094 13.980469-2.910156 29.007813-16.324218 34.546875-6.433594 1.300781-13.136719.3125-18.953126-2.792969zm332.878907-71.496093 30.859375 9.375c-8.128906 6.132812-14.09375 14.636719-17.101563 24.546875-3.074219 10.117187-2.640625 20.550781.625 29.9375l-112.300781-34.113282zm82.023437 54.660156c-2.207031 7.261719-7.121094 13.242187-13.828125 16.832031-5.824219 3.109375-12.53125 4.097656-18.964843 2.796875-13.414063-5.539062-20.570313-20.566406-16.320313-34.546875 2.203125-7.261718 7.117187-13.242187 13.824219-16.832031 5.828125-3.109375 12.527344-4.097656 18.949218-2.800781 13.425782 5.539062 20.585938 20.566406 16.339844 34.550781zm0 0"/></svg>