<svg id="Capa_1" enable-background="new 0 0 512 512" height="512" viewBox="0 0 512 512" width="512" xmlns="http://www.w3.org/2000/svg"><g><path d="m341.884 146.236c0-36.25-29.491-65.741-65.741-65.741h-65.158c-12.406 0-22.5 10.093-22.5 22.5v158.157c0 12.407 10.094 22.5 22.5 22.5s22.5-10.093 22.5-22.5v-49.174h42.658c36.25 0 65.741-29.492 65.741-65.742zm-115.899 50.742c-4.143 0-7.5 3.358-7.5 7.5v56.674c0 4.136-3.364 7.5-7.5 7.5s-7.5-3.364-7.5-7.5v-158.157c0-4.136 3.364-7.5 7.5-7.5h65.158c27.979 0 50.741 22.762 50.741 50.741s-22.763 50.742-50.741 50.742z"/><path d="m311.884 146.237c0-19.708-16.033-35.742-35.741-35.742h-50.158c-4.143 0-7.5 3.358-7.5 7.5v56.483c0 4.142 3.357 7.5 7.5 7.5h50.158c19.708 0 35.741-16.034 35.741-35.741zm-78.399-20.742h42.658c11.437 0 20.741 9.305 20.741 20.742s-9.305 20.741-20.741 20.741h-42.658z"/><path d="m273.5 327.462h65.779c36.09 0 65.451-29.361 65.451-65.452v-166.559c.001-36.09-29.36-65.451-65.45-65.451h-166.56c-36.09 0-65.451 29.361-65.451 65.451v166.559c0 36.09 29.361 65.452 65.451 65.452h65.78c4.143 0 7.5-3.358 7.5-7.5s-3.357-7.5-7.5-7.5h-65.78c-27.819 0-50.451-22.632-50.451-50.452v-166.559c0-27.819 22.632-50.451 50.451-50.451h166.56c27.819 0 50.451 22.632 50.451 50.451v166.559c0 27.819-22.632 50.452-50.451 50.452h-65.78c-4.143 0-7.5 3.358-7.5 7.5s3.358 7.5 7.5 7.5z"/><path d="m339.28 0h-166.56c-52.632 0-95.451 42.819-95.451 95.451v166.56c0 52.632 42.819 95.451 95.451 95.451h57.298v141.108c0 7.405 6.025 13.43 13.431 13.43h25.104c7.405 0 13.431-6.025 13.431-13.43v-141.108h57.297c52.632 0 95.451-42.819 95.451-95.451v-65.78c0-4.142-3.357-7.5-7.5-7.5s-7.5 3.358-7.5 7.5v65.78c0 44.361-36.09 80.451-80.451 80.451-24.488 0-142.118 0-166.56 0-44.361 0-80.451-36.09-80.451-80.451v-166.56c-.001-44.361 36.089-80.451 80.45-80.451h166.56c44.361 0 80.451 36.09 80.451 80.451v65.78c0 4.142 3.357 7.5 7.5 7.5s7.5-3.358 7.5-7.5v-65.78c0-52.632-42.819-95.451-95.451-95.451zm-72.297 497h-21.965v-139.538h21.965z"/></g></svg>