<svg id="Capa_1" enable-background="new 0 0 512.5 512.5" height="512" viewBox="0 0 512.5 512.5" width="512" xmlns="http://www.w3.org/2000/svg"><g><path d="m417.444 409.414-30.996-115.548c27.108-26.087 44.003-62.715 44.003-103.218v-5.109c8.316-1.35 14.692-8.562 14.692-17.253v-11c0-9.649-7.851-17.5-17.5-17.5h-9.639v-13.472c0-9.663-7.862-17.525-17.525-17.525h-58.077c-9.664 0-17.525 7.862-17.525 17.525v13.472h-17.745v-13.472c0-9.663-7.862-17.525-17.525-17.525h-58.077c-9.664 0-17.525 7.862-17.525 17.525v13.472h-18.894v-13.472c0-9.663-7.862-17.525-17.525-17.525h-58.076c-9.664 0-17.525 7.862-17.525 17.525v13.472h-7.34c-9.649 0-17.5 7.851-17.5 17.5v11c0 8.287 5.796 15.231 13.542 17.032v5.33c0 14.883 2.273 29.553 6.756 43.603 1.017 3.188 3.966 5.222 7.143 5.222.755 0 1.524-.115 2.282-.357 3.946-1.259 6.125-5.479 4.865-9.425-4.012-12.574-6.046-25.709-6.046-39.043v-4.862h199.542c4.142 0 7.5-3.358 7.5-7.5s-3.358-7.5-7.5-7.5h-210.585c-1.378 0-2.5-1.122-2.5-2.5v-11c0-1.378 1.122-2.5 2.5-2.5h333c1.378 0 2.5 1.122 2.5 2.5v11c0 1.378-1.122 2.5-2.5 2.5h-87.437c-4.142 0-7.5 3.358-7.5 7.5s3.358 7.5 7.5 7.5h75.245v4.862c0 70.744-57.554 128.298-128.298 128.298h-53.17c-43.865-.005-84.282-22.097-108.028-59.055-2.238-3.485-6.879-4.493-10.364-2.256-3.485 2.239-4.495 6.878-2.256 10.364 6.524 10.156 14.177 19.3 22.731 27.324l-46.157 172.177h-18.341c-9.649 0-17.5 7.851-17.5 17.5v10c0 9.649 7.851 17.5 17.5 17.5h78c9.649 0 17.5-7.851 17.5-17.5v-10c0-9.649-7.851-17.5-17.5-17.5h-13.071l17.559-65.5h214.809l4.82 17.967c-11.652 9.53-19.106 24.011-19.106 40.203 0 28.632 23.293 51.925 51.925 51.925 6.276 0 12.413-1.109 18.241-3.297 3.878-1.456 5.841-5.779 4.386-9.657s-5.78-5.842-9.657-4.386c-4.137 1.553-8.5 2.34-12.97 2.34-20.361 0-36.925-16.564-36.925-36.925s16.564-36.926 36.925-36.926 36.926 16.565 36.926 36.926c0 5.077-1.01 9.992-3 14.608-1.641 3.803.113 8.217 3.917 9.857 3.801 1.641 8.217-.112 9.857-3.917 2.805-6.503 4.227-13.417 4.227-20.549-.001-24.878-17.593-45.717-40.988-50.755zm-77.566-272.149v-10.95c0-1.392 1.133-2.525 2.525-2.525h58.077c1.393 0 2.525 1.133 2.525 2.525v10.95c0 1.383-1.117 2.507-2.496 2.522h-58.135c-1.379-.016-2.496-1.14-2.496-2.522zm-110.873 0v-10.95c0-1.392 1.133-2.525 2.525-2.525h58.077c1.393 0 2.525 1.133 2.525 2.525v10.95c0 1.383-1.117 2.507-2.496 2.522h-58.135c-1.378-.016-2.496-1.14-2.496-2.522zm-112.021 0v-10.95c0-1.392 1.133-2.525 2.525-2.525h58.077c1.393 0 2.525 1.133 2.525 2.525v10.95c0 1.383-1.117 2.507-2.496 2.522h-58.135c-1.378-.016-2.496-1.14-2.496-2.522zm35.085 347.735v10c0 1.378-1.122 2.5-2.5 2.5h-78c-1.378 0-2.5-1.122-2.5-2.5v-10c0-1.378 1.122-2.5 2.5-2.5h78c1.379 0 2.5 1.122 2.5 2.5zm-46.63-17.5 43.32-161.593c4.243 3.144 8.645 6.051 13.197 8.697-10.266 38.293-30.742 114.673-40.988 152.895h-15.529zm52.639-80.5 4.289-16h57.585c4.142 0 7.5-3.358 7.5-7.5s-3.358-7.5-7.5-7.5h-53.563l9.227-34.418c18.059 8.038 37.868 12.365 58.369 12.365h53.17c21.384 0 41.685-4.716 59.929-13.151l9.442 35.204h-101.595c-4.142 0-7.5 3.358-7.5 7.5s3.358 7.5 7.5 7.5h105.619l4.292 16zm224.154 6.932c-5.226-19.637-16.215-60.339-21.549-80.334 4.549-2.731 8.934-5.708 13.138-8.911l27.842 103.791c-5.109.475-10.002 1.696-14.577 3.548z"/><path d="m384.005 460.17c0 12.407 10.093 22.5 22.5 22.5s22.5-10.093 22.5-22.5-10.093-22.5-22.5-22.5-22.5 10.094-22.5 22.5zm30 0c0 4.136-3.364 7.5-7.5 7.5s-7.5-3.364-7.5-7.5 3.364-7.5 7.5-7.5 7.5 3.365 7.5 7.5z"/><path d="m166.686 82.5c0 4.142 3.358 7.5 7.5 7.5s7.5-3.358 7.5-7.5c0-3.62 1.122-5.021 3.356-7.815 2.804-3.505 6.644-8.305 6.644-17.186s-3.84-13.681-6.644-17.186c-2.235-2.794-3.356-4.196-3.356-7.815 0-3.618 1.122-5.02 3.356-7.813 2.804-3.504 6.644-8.304 6.644-17.185 0-4.142-3.358-7.5-7.5-7.5s-7.5 3.358-7.5 7.5c0 3.619-1.122 5.021-3.356 7.813-2.804 3.504-6.644 8.304-6.644 17.184 0 8.881 3.84 13.681 6.643 17.186 2.235 2.794 3.357 4.196 3.357 7.816s-1.122 5.021-3.356 7.815c-2.804 3.505-6.644 8.305-6.644 17.186z"/><path d="m248.069 82.5c0 4.142 3.358 7.5 7.5 7.5s7.5-3.358 7.5-7.5c0-3.62 1.122-5.021 3.356-7.815 2.804-3.505 6.644-8.305 6.644-17.186s-3.84-13.681-6.644-17.186c-2.235-2.794-3.356-4.196-3.356-7.815 0-3.618 1.122-5.02 3.356-7.813 2.804-3.504 6.644-8.304 6.644-17.185 0-4.142-3.358-7.5-7.5-7.5s-7.5 3.358-7.5 7.5c0 3.619-1.122 5.021-3.356 7.813-2.804 3.504-6.644 8.304-6.644 17.184 0 8.881 3.84 13.681 6.643 17.186 2.235 2.794 3.357 4.196 3.357 7.816s-1.122 5.021-3.356 7.815c-2.804 3.505-6.644 8.305-6.644 17.186z"/><path d="m327.665 82.5c0 4.142 3.358 7.5 7.5 7.5s7.5-3.358 7.5-7.5c0-3.62 1.122-5.021 3.356-7.815 2.804-3.505 6.644-8.305 6.644-17.186s-3.84-13.681-6.644-17.186c-2.235-2.794-3.356-4.196-3.356-7.815 0-3.618 1.122-5.02 3.356-7.813 2.804-3.504 6.644-8.304 6.644-17.185 0-4.142-3.358-7.5-7.5-7.5s-7.5 3.358-7.5 7.5c0 3.619-1.122 5.021-3.356 7.813-2.804 3.504-6.644 8.304-6.644 17.184 0 8.881 3.84 13.681 6.643 17.186 2.235 2.794 3.357 4.196 3.357 7.816s-1.122 5.021-3.356 7.815c-2.804 3.505-6.644 8.305-6.644 17.186z"/></g></svg>