<svg id="Capa_1" enable-background="new 0 0 512 512" height="512" viewBox="0 0 512 512" width="512" xmlns="http://www.w3.org/2000/svg"><g><path d="m511.708 199.942c.881-4.406-.259-8.976-3.108-12.451s-7.106-5.49-11.6-5.49c-307.301 0-187.276 0-482 0-4.494 0-8.751 2.015-11.6 5.49s-3.99 8.045-3.108 12.451c2.368 11.841 58.722 293.612 60 300 1.401 7.011 7.558 12.058 14.708 12.058h362c7.15 0 13.307-5.047 14.708-12.058 2.138-10.687 58.536-292.676 60-300zm-454.411 132.058h397.406l-6 30h-385.406zm65.128-120 4.649 46.492c.774 7.736 7.295 13.509 14.908 13.509.499 0 1.003-.025 1.511-.076 8.243-.824 14.257-8.175 13.433-16.418l-4.351-43.507h88.072v45c0 8.479 6.874 15.353 15.353 15.353s15.353-6.874 15.353-15.353v-45h87.717l-4.347 43.472c-.844 8.437 5.312 15.961 13.749 16.804.52.052 1.035.077 1.546.077 7.792 0 14.466-5.909 15.258-13.826l4.654-46.527h88.773l-18 90h-409.406l-18-90zm302.278 270h-61.773l4.347-43.472c.844-8.437-5.312-15.961-13.749-16.804-8.439-.84-15.961 5.312-16.805 13.749l-4.653 46.527h-60.717v-45c0-8.479-6.874-15.353-15.353-15.353s-15.353 6.874-15.353 15.353v45h-61.072l-4.649-46.492c-.825-8.243-8.174-14.258-16.418-13.433-8.243.824-14.257 8.175-13.433 16.418l4.35 43.507h-62.128l-18-90h373.406z"/><path d="m141.546 148.129c7.03 4.686 16.57 2.823 21.291-4.258 4.704-7.055 2.797-16.587-4.258-21.291-5.859-3.906-9.219-10.184-9.219-17.226 0-7.041 3.36-13.32 9.219-17.225 14.334-9.556 22.892-25.547 22.892-42.775s-8.558-33.218-22.892-42.774c-7.054-4.703-16.587-2.797-21.291 4.258s-2.797 16.587 4.258 21.291c5.858 3.906 9.219 10.184 9.219 17.225s-3.36 13.32-9.219 17.226c-14.334 9.556-22.892 25.547-22.892 42.774s8.558 33.219 22.892 42.775z"/><path d="m246.546 148.129c7.03 4.686 16.57 2.823 21.291-4.258 4.704-7.055 2.797-16.587-4.258-21.291-5.859-3.906-9.219-10.184-9.219-17.226 0-7.041 3.36-13.32 9.219-17.225 14.334-9.556 22.892-25.547 22.892-42.775s-8.558-33.218-22.892-42.774c-7.055-4.703-16.587-2.797-21.291 4.258s-2.797 16.587 4.258 21.291c5.858 3.906 9.219 10.184 9.219 17.225s-3.36 13.32-9.219 17.226c-14.334 9.556-22.892 25.547-22.892 42.774s8.558 33.219 22.892 42.775z"/><path d="m351.546 148.129c7.03 4.686 16.57 2.823 21.291-4.258 4.704-7.055 2.797-16.587-4.258-21.291-5.859-3.906-9.219-10.184-9.219-17.226 0-7.041 3.36-13.32 9.219-17.225 14.334-9.556 22.892-25.547 22.892-42.775s-8.558-33.218-22.892-42.774c-7.054-4.703-16.587-2.797-21.291 4.258s-2.797 16.587 4.258 21.291c5.858 3.906 9.219 10.184 9.219 17.225s-3.36 13.32-9.219 17.226c-14.334 9.556-22.892 25.547-22.892 42.774s8.558 33.219 22.892 42.775z"/></g></svg>