<svg height="512pt" viewBox="-32 0 512 512" width="512pt" xmlns="http://www.w3.org/2000/svg"><path d="m74.078125 167.375-68.242187 228.890625h373.382812l68.242188-228.890625zm293.960937 213.890625h-342.078124l59.296874-198.890625h342.078126zm0 0"/><path d="m109.660156 435.253906v-26.488281h-15v26.488281c-11.4375 3.269532-19.839844 13.820313-19.839844 26.292969 0 15.074219 12.265626 27.339844 27.339844 27.339844 15.074219 0 27.339844-12.265625 27.339844-27.339844 0-12.476563-8.398438-23.023437-19.839844-26.292969zm-7.5 38.632813c-6.804687 0-12.339844-5.535157-12.339844-12.339844s5.535157-12.335937 12.339844-12.335937c6.804688 0 12.339844 5.53125 12.339844 12.335937s-5.535156 12.339844-12.339844 12.339844zm0 0"/><path d="m184.484375 458.367188v-28.625l-26.28125-26.28125-10.605469 10.605468 21.886719 21.890625v22.410157c-11.4375 3.269531-19.839844 13.820312-19.839844 26.292968 0 15.074219 12.265625 27.339844 27.339844 27.339844s27.339844-12.265625 27.339844-27.339844c0-12.472656-8.398438-23.023437-19.839844-26.292968zm-7.5 38.632812c-6.804687 0-12.339844-5.535156-12.339844-12.339844 0-6.804687 5.535157-12.339844 12.339844-12.339844s12.339844 5.535157 12.339844 12.339844c0 6.804688-5.535157 12.339844-12.339844 12.339844zm0 0"/><path d="m56.726562 414.066406-10.609374-10.605468-26.277344 26.28125v28.625c-11.441406 3.269531-19.839844 13.820312-19.839844 26.292968 0 15.074219 12.261719 27.339844 27.339844 27.339844 15.074218 0 27.335937-12.265625 27.335937-27.339844 0-12.472656-8.398437-23.023437-19.835937-26.292968v-22.410157zm-17.050781 70.59375c0 6.804688-5.535156 12.339844-12.335937 12.339844-6.804688 0-12.339844-5.535156-12.339844-12.339844 0-6.804687 5.535156-12.339844 12.339844-12.339844 6.800781 0 12.335937 5.535157 12.335937 12.339844zm0 0"/><path d="m281.921875 76.746094v26.507812h15v-26.507812c11.441406-3.269532 19.839844-13.820313 19.839844-26.292969 0-15.074219-12.265625-27.339844-27.339844-27.339844s-27.335937 12.265625-27.335937 27.339844c0 12.476563 8.398437 23.023437 19.835937 26.292969zm7.5-38.632813c6.804687 0 12.339844 5.535157 12.339844 12.339844s-5.535157 12.335937-12.339844 12.335937-12.335937-5.53125-12.335937-12.335937 5.535156-12.339844 12.335937-12.339844zm0 0"/><path d="m207.101562 53.632812v28.625l26.296876 26.300782 10.609374-10.605469-21.90625-21.90625v-22.414063c11.4375-3.269531 19.839844-13.820312 19.839844-26.292968 0-15.074219-12.265625-27.339844-27.339844-27.339844-15.074218 0-27.339843 12.265625-27.339843 27.339844 0 12.472656 8.398437 23.023437 19.839843 26.292968zm7.5-38.632812c6.804688 0 12.339844 5.535156 12.339844 12.339844 0 6.804687-5.535156 12.339844-12.339844 12.339844-6.804687 0-12.339843-5.535157-12.339843-12.339844 0-6.804688 5.535156-12.339844 12.339843-12.339844zm0 0"/><path d="m335.871094 96.921875 10.605468 10.605469 25.269532-25.269532v-28.625c11.441406-3.269531 19.839844-13.820312 19.839844-26.292968 0-15.074219-12.265626-27.339844-27.339844-27.339844-15.074219 0-27.339844 12.265625-27.339844 27.339844 0 12.472656 8.402344 23.023437 19.839844 26.292968v22.410157zm16.035156-69.582031c0-6.804688 5.535156-12.339844 12.339844-12.339844 6.804687 0 12.339844 5.535156 12.339844 12.339844 0 6.804687-5.535157 12.339844-12.339844 12.339844-6.804688 0-12.339844-5.535157-12.339844-12.339844zm0 0"/><path d="m174.179688 199.808594h-7.5v44.804687h7.5c53.386718 0 96.816406 43.433594 96.816406 96.816407v7.5h44.804687v-7.5c0-78.089844-63.53125-141.621094-141.621093-141.621094zm111.570312 134.121094c-3.707031-55.691407-48.378906-100.359376-104.070312-104.066407v-14.835937c63.859374 3.75 115.15625 55.042968 118.902343 118.902344zm0 0"/><path d="m174.179688 259.417969h-7.5v44.804687h7.5c20.515624 0 37.207031 16.691406 37.207031 37.207032v7.5h44.804687v-7.5c0-45.21875-36.789062-82.011719-82.011718-82.011719zm51.667968 74.511719c-3.292968-22.796876-21.371094-40.875-44.167968-44.167969v-14.925781c30.972656 3.464843 55.628906 28.125 59.09375 59.09375zm0 0"/><path d="m174.179688 319.027344c-12.355469 0-22.402344 10.050781-22.402344 22.402344 0 12.351562 10.050781 22.402343 22.402344 22.402343 12.351562 0 22.402343-10.050781 22.402343-22.402343 0-12.351563-10.050781-22.402344-22.402343-22.402344zm0 29.804687c-4.082032 0-7.402344-3.320312-7.402344-7.402343 0-4.082032 3.320312-7.402344 7.402344-7.402344 4.082031 0 7.402343 3.320312 7.402343 7.402344 0 4.082031-3.320312 7.402343-7.402343 7.402343zm0 0"/><path d="m23.394531 81.789062h93.71875l19.839844 48.964844h229.175781v24.121094h15v-39.121094h-234.070312l-19.839844-48.964844h-118.824219v251.976563h15zm0 0"/><path d="m362.179688 365.90625-14.375-4.285156 19.761718-66.28125 14.375 4.285156zm22.621093-75.863281-14.375-4.285157 4.285157-14.375 14.375 4.285157zm7.140625-23.957031-14.375-4.285157 4.289063-14.375 14.375 4.285157zm0 0"/><path d="m349.277344 157.375h-74.003906v-15h74.003906zm-84.003906 0h-15v-15h15zm-25 0h-15v-15h15zm0 0"/></svg>