<svg id="Capa_1" enable-background="new 0 0 511.982 511.982" height="512" viewBox="0 0 511.982 511.982" width="512" xmlns="http://www.w3.org/2000/svg"><g><path d="m295.706 88.727c7.935-5.606 16.787-9.229 26.311-10.769 3.838-.621 6.566-4.072 6.283-7.95-1.227-16.795 9.758-31.955 26.117-36.047 12.838-3.21 26.597 1.3 35.054 11.49 2.427 2.924 6.654 3.57 9.845 1.508 10.244-6.625 22.116-10.127 34.333-10.127 34.923 0 63.334 28.412 63.334 63.334 0 4.142 3.357 7.5 7.5 7.5s7.5-3.358 7.5-7.5c0-43.194-35.141-78.334-78.334-78.334-13.016 0-25.718 3.214-37.089 9.343-12.169-11.243-29.494-15.84-45.781-11.766-21.271 5.32-36.202 23.697-37.483 45.041-9.364 2.338-18.334 6.437-26.245 12.026-3.383 2.39-4.188 7.07-1.797 10.453 2.388 3.383 7.066 4.189 10.452 1.798z"/><path d="m7.5 97.579c4.142 0 7.5-3.358 7.5-7.5 0-23.648 19.239-42.887 42.887-42.887 11.565 0 22.41 4.541 30.538 12.786 1.94 1.968 4.804 2.71 7.454 1.931 6.347-1.863 12.908-2.808 19.501-2.808 38.114 0 69.122 31.008 69.122 69.121 0 8.328-1.474 16.485-4.382 24.244-.83 2.213-.567 4.687.708 6.677 1.274 1.99 3.413 3.263 5.77 3.435 6.761.494 13.173 2.943 18.543 7.083 1.362 1.05 2.974 1.561 4.575 1.561 2.169 0 4.318-.938 5.798-2.738 6.608-8.04 16.358-12.65 26.75-12.65 5.844 0 11.622 1.487 16.709 4.299 2.543 1.405 5.667 1.216 8.02-.483 2.354-1.7 3.516-4.606 2.981-7.46-.731-3.907-1.102-7.851-1.102-11.724 0-10.074 2.31-19.719 6.863-28.666 1.879-3.691.41-8.208-3.281-10.086-3.689-1.877-8.208-.409-10.086 3.282-5.638 11.076-8.496 23.01-8.496 35.471 0 .583.007 1.167.02 1.751-3.795-.915-7.702-1.383-11.628-1.383-12.6 0-24.54 4.727-33.651 13.155-3.697-2.113-7.641-3.733-11.746-4.828 1.751-6.815 2.636-13.827 2.636-20.938 0-46.385-37.737-84.121-84.122-84.121-6.573 0-13.118.771-19.514 2.296-10.533-9.191-23.858-14.205-37.979-14.205-31.92-.002-57.888 25.966-57.888 57.885 0 4.142 3.358 7.5 7.5 7.5z"/><path d="m19.291 173.642c-.954 4.031 1.541 8.072 5.572 9.025.581.137 1.161.203 1.733.203 3.397 0 6.476-2.325 7.292-5.775 2.517-10.643 11.135-18.517 21.955-20.062 10.819-1.547 21.297 3.604 26.692 13.117 2.043 3.603 6.62 4.866 10.224 2.824 3.603-2.043 4.867-6.621 2.824-10.224-7.909-13.944-22.781-21.905-38.553-20.904-2.364-10.326-9.677-18.897-19.912-22.773-12.438-4.709-26.244-1.379-35.176 8.48-2.781 3.07-2.546 7.812.523 10.594 3.068 2.78 7.812 2.546 10.594-.523 4.761-5.256 12.121-7.031 18.748-4.522 5.523 2.091 9.446 6.751 10.654 12.349-11.505 5.179-20.146 15.409-23.17 28.191z"/><path d="m480.175 140.079c6.627-2.508 13.985-.735 18.748 4.522 2.781 3.07 7.524 3.304 10.594.523 3.069-2.781 3.305-7.523.523-10.594-8.931-9.859-22.736-13.189-35.177-8.48-10.24 3.877-17.555 12.456-19.914 22.789-10.213-.618-20.426 2.582-28.456 9.032-3.229 2.594-3.744 7.315-1.149 10.544 2.593 3.229 7.314 3.745 10.544 1.15 5.756-4.625 12.947-6.598 20.25-5.555 10.82 1.545 19.438 9.419 21.956 20.062.816 3.451 3.895 5.775 7.292 5.775.572 0 1.153-.065 1.733-.203 4.031-.954 6.525-4.994 5.572-9.025-3.024-12.782-11.666-23.013-23.17-28.192 1.209-5.598 5.132-10.257 10.654-12.348z"/><path d="m504.482 210.9h-496.982c-4.142 0-7.5 3.358-7.5 7.5s3.358 7.5 7.5 7.5h496.982c4.143 0 7.5-3.358 7.5-7.5s-3.357-7.5-7.5-7.5z"/><path d="m134.086 287.718c0-4.142-3.358-7.5-7.5-7.5-4.056 0-5.713-1.061-8.458-2.817-3.417-2.187-8.098-5.183-16.543-5.183s-13.125 2.996-16.543 5.183c-2.745 1.756-4.402 2.817-8.458 2.817-4.054 0-5.71-1.06-8.455-2.817-3.417-2.188-8.098-5.183-16.542-5.183s-13.124 2.996-16.542 5.183c-2.745 1.757-4.401 2.817-8.456 2.817-4.142 0-7.5 3.358-7.5 7.5s3.358 7.5 7.5 7.5c8.444 0 13.125-2.996 16.542-5.183 2.745-1.757 4.401-2.817 8.456-2.817s5.711 1.06 8.455 2.817c3.417 2.188 8.098 5.183 16.542 5.183 8.445 0 13.125-2.996 16.543-5.183 2.745-1.756 4.402-2.817 8.458-2.817s5.713 1.061 8.458 2.817c3.418 2.188 8.099 5.183 16.544 5.183 4.141 0 7.499-3.357 7.499-7.5z"/><path d="m105.073 338.905c-3.417-2.188-8.098-5.183-16.542-5.183s-13.124 2.996-16.542 5.183c-2.745 1.757-4.401 2.817-8.456 2.817-4.142 0-7.5 3.358-7.5 7.5s3.358 7.5 7.5 7.5c8.444 0 13.125-2.996 16.542-5.183 2.745-1.757 4.401-2.817 8.456-2.817s5.711 1.06 8.456 2.817c3.417 2.187 8.097 5.183 16.541 5.183 4.142 0 7.5-3.358 7.5-7.5s-3.358-7.5-7.5-7.5c-4.054-.001-5.711-1.061-8.455-2.817z"/><path d="m422.736 308.706c2.745-1.757 4.401-2.817 8.456-2.817s5.711 1.06 8.455 2.817c3.417 2.188 8.098 5.183 16.541 5.183 4.143 0 7.5-3.358 7.5-7.5s-3.357-7.5-7.5-7.5c-4.055 0-5.711-1.06-8.455-2.817-3.417-2.188-8.098-5.183-16.541-5.183-8.444 0-13.125 2.996-16.542 5.183-2.745 1.757-4.401 2.817-8.456 2.817-4.143 0-7.5 3.358-7.5 7.5s3.357 7.5 7.5 7.5c8.444 0 13.125-2.995 16.542-5.183z"/><path d="m504.482 479.035h-82.344v-49.82c0-7.346-5.977-13.322-13.322-13.322h-24.333l-17.238-48.859c4.32-1.035 7.251-2.908 9.589-4.404 2.745-1.757 4.402-2.817 8.458-2.817 4.057 0 5.713 1.061 8.458 2.817 3.418 2.187 8.099 5.183 16.543 5.183s13.125-2.996 16.542-5.183c2.745-1.757 4.401-2.817 8.456-2.817s5.711 1.06 8.455 2.817c3.417 2.188 8.098 5.183 16.541 5.183 4.143 0 7.5-3.358 7.5-7.5s-3.357-7.5-7.5-7.5c-4.055 0-5.711-1.06-8.455-2.817-3.417-2.188-8.098-5.183-16.541-5.183-8.444 0-13.125 2.996-16.542 5.183-2.745 1.757-4.401 2.817-8.456 2.817-4.056 0-5.712-1.061-8.457-2.817-3.418-2.188-8.099-5.183-16.544-5.183s-13.126 2.996-16.544 5.183c-2.267 1.45-3.811 2.415-6.557 2.711l-5.674-16.082c-1.378-3.907-5.661-5.955-9.567-4.578-3.906 1.378-5.956 5.662-4.578 9.568l28.422 80.563c-1.28 2.045-2.032 4.453-2.032 7.038v49.82h-9.767l-45.615-187.688h11.258l6.396 18.128c1.088 3.081 3.982 5.007 7.073 5.007.828 0 1.67-.138 2.495-.429 3.906-1.378 5.956-5.662 4.578-9.568l-7.774-22.036c.026-.255.04-.513.04-.774v-29.312c0-7.346-5.976-13.322-13.321-13.322h-17.465c-7.346 0-13.321 5.976-13.321 13.322v23.984h-30.915c-4.143 0-7.5 3.358-7.5 7.5s3.357 7.5 7.5 7.5h35.52l6.215 25.573h-97.69l6.215-25.573h15.739c4.142 0 7.5-3.358 7.5-7.5s-3.358-7.5-7.5-7.5h-11.134v-23.984c0-7.346-5.976-13.322-13.322-13.322h-17.464c-7.346 0-13.322 5.976-13.322 13.322v30.2l-47.037 133.329h-22.976c-7.346 0-13.322 5.977-13.322 13.322v49.82h-82.346c-4.142 0-7.5 3.358-7.5 7.5s3.358 7.5 7.5 7.5h496.982c4.143 0 7.5-3.358 7.5-7.5s-3.357-7.5-7.5-7.5zm-196.145-224.994h14.107v22.306h-14.107zm75.424 176.852h23.377v48.143h-23.377zm-190.797-58.409h124.697l7.83 32.217h-140.357zm-11.476 47.216h147.648l7.083 29.143h-161.813zm-10.728 44.143h169.105l3.692 15.192h-176.489zm137.043-131.922 6.213 25.563h-117.407l6.213-25.563zm-156.172 147.114h-8.41v-49.82c0-3.148-1.103-6.04-2.936-8.322l45.702-129.545h11.259zm50.656-224.994v22.306h-14.108v-22.306zm-97.443 176.852h23.376v48.143h-23.376z"/></g></svg>