<?xml version="1.0" encoding="iso-8859-1"?>
<!-- Generator: Adobe Illustrator 19.0.0, SVG Export Plug-In . SVG Version: 6.00 Build 0)  -->
<svg version="1.1" id="Capa_1" xmlns="http://www.w3.org/2000/svg" xmlns:xlink="http://www.w3.org/1999/xlink" x="0px" y="0px"
	 viewBox="0 0 511.999 511.999" style="enable-background:new 0 0 511.999 511.999;" xml:space="preserve">
<g>
	<g>
		<path d="M451.186,147.252c-20.578-33.242-49.458-60.865-83.518-79.883C333.6,48.347,294.99,38.292,256.013,38.292
			c-0.002,0-0.004,0-0.006,0c-0.005,0-0.009,0-0.014,0c-0.002,0-0.004,0-0.005,0c-38.978,0-77.588,10.055-111.656,29.077
			c-34.06,19.018-62.939,46.641-83.518,79.883c-2.751,4.445-2.99,10.002-0.63,14.666c5.4,10.676,23.561,28.753,57.372,28.787
			c0.04,0,0.08,0,0.12,0c23.756,0,39.348-7.371,48.926-14.574c12.243,8.56,34.567,17.942,74.4,19.879v93.635h-95.95
			c-8.284,0-15,6.716-15,15s6.716,15,15,15h28.447v138.866c0,8.284,6.716,15,15,15s15-6.716,15-15V319.645h105.506v138.866
			c0,8.284,6.716,15,15,15c8.284,0,15-6.716,15-15V319.645h30.918c8.284,0,15-6.716,15-15c0-8.284-6.717-15-15.001-15H271v-93.607
			c39.866-1.872,62.192-11.284,74.433-19.882c9.58,7.195,25.163,14.548,48.893,14.548c0.038,0,0.082,0,0.12,0
			c33.811-0.034,51.971-18.111,57.372-28.787C454.176,157.254,453.937,151.697,451.186,147.252z M151.818,149.318
			c-3.771,3.82-13.804,11.388-34.148,11.388c-0.028,0-0.058,0-0.085,0c-12.593-0.013-20.508-3.597-25.16-6.953
			c23.414-33.623,55.817-58.634,92.917-72.643C165.97,100.979,154.533,124.167,151.818,149.318z M256.333,166.375
			c-48.565,0-67.956-11.096-74.39-16.317c6.864-48.549,57.95-73.829,74.055-80.648c16.141,6.836,67.219,32.126,74.062,80.68
			C323.692,155.299,304.484,166.375,256.333,166.375z M394.414,160.705c-0.029,0-0.056,0-0.085,0
			c-20.343,0-30.377-7.569-34.148-11.389c-2.715-25.151-14.152-48.338-33.525-68.207c37.101,14.01,69.504,39.02,92.917,72.643
			C414.922,157.108,407.008,160.692,394.414,160.705z"/>
	</g>
</g>
<g>
	<g>
		<path d="M113.443,350.178H42.93L29.883,246.559c-1.034-8.22-8.537-14.042-16.756-13.009c-8.219,1.035-14.043,8.537-13.008,16.757
			l14.597,115.931v92.469c0,8.284,6.716,15,15,15c8.284,0,15-6.716,15-15v-78.53h53.729v78.529c0,8.284,6.716,15,15,15
			c8.284,0,15-6.716,15-15v-93.528C128.443,356.894,121.728,350.178,113.443,350.178z"/>
	</g>
</g>
<g>
	<g>
		<path d="M498.871,233.55c-8.218-1.035-15.721,4.79-16.756,13.009l-13.047,103.618h-70.514c-8.284,0-15,6.716-15,15v93.528
			c0,8.284,6.716,15,15,15s15-6.716,15-15v-78.529h53.729v78.529c0,8.284,6.716,15,15,15s15-6.716,15-15v-92.468l14.597-115.931
			C512.915,242.087,507.091,234.585,498.871,233.55z"/>
	</g>
</g>
<g>
</g>
<g>
</g>
<g>
</g>
<g>
</g>
<g>
</g>
<g>
</g>
<g>
</g>
<g>
</g>
<g>
</g>
<g>
</g>
<g>
</g>
<g>
</g>
<g>
</g>
<g>
</g>
<g>
</g>
</svg>
